<svg version="1.1" xmlns="http://www.w3.org/2000/svg" xmlns:xlink="http://www.w3.org/1999/xlink" width="371" height="119"><defs><clipPath id="FzlqQTQvJIMw"><path fill="none" stroke="none" d=" M 0 0 L 371 0 L 371 119 L 0 119 L 0 0 Z"/></clipPath></defs><g transform="scale(1,1)" clip-path="url(#FzlqQTQvJIMw)"><g transform="translate(-59,-239)"><g transform="scale(21,21)"><g transform="translate(3.142857142857143,12.987644714285713)"><path fill="rgb(0,0,0)" stroke="none" paint-order="stroke fill markers" d=" M 0.513671875 -0.0400390625 L 0.513671875 0.01708984375 L 0.3056640625 0.01708984375 L 0.3056640625 2.3017578125 L 0.513671875 2.3017578125 L 0.513671875 2.35888671875 L 0.2490234375 2.35888671875 L 0.2490234375 -0.0400390625 L 0.513671875 -0.0400390625 Z"/></g><g transform="translate(3.992857142857143,13.782144714285712)"><path fill="rgb(0,0,0)" stroke="none" paint-order="stroke fill markers" d=" M 0.192 -0.616 Q 0.192 -0.585 0.164 -0.5700000000000001 Q 0.152 -0.5630000000000001 0.138 -0.5630000000000001 Q 0.105 -0.5630000000000001 0.09 -0.594 Q 0.085 -0.605 0.085 -0.616 Q 0.085 -0.647 0.113 -0.662 Q 0.125 -0.669 0.139 -0.669 Q 0.17200000000000001 -0.669 0.187 -0.638 Q 0.192 -0.627 0.192 -0.616 Z"/></g><g transform="translate(3.670857142857143,13.782144714285712)"><path fill="rgb(0,0,0)" stroke="none" paint-order="stroke fill markers" d=" M 0.334 -0.302 L 0.3 -0.165 Q 0.28300000000000003 -0.097 0.28300000000000003 -0.077 Q 0.28300000000000003 -0.025 0.32 -0.014 Q 0.328 -0.011 0.338 -0.011 Q 0.388 -0.011 0.429 -0.061 Q 0.456 -0.093 0.47100000000000003 -0.14200000000000002 Q 0.47400000000000003 -0.153 0.484 -0.153 Q 0.496 -0.153 0.496 -0.14300000000000002 Q 0.496 -0.11800000000000001 0.465 -0.07100000000000001 Q 0.41100000000000003 0.011 0.336 0.011 Q 0.268 0.011 0.23700000000000002 -0.046 Q 0.231 -0.055 0.228 -0.065 Q 0.20400000000000001 -0.017 0.162 0.002 Q 0.14300000000000002 0.011 0.123 0.011 Q 0.063 0.011 0.039 -0.024 Q 0.029 -0.037 0.029 -0.055 Q 0.029 -0.092 0.061 -0.107 Q 0.07200000000000001 -0.113 0.084 -0.113 Q 0.114 -0.113 0.12 -0.088 Q 0.121 -0.083 0.121 -0.078 Q 0.121 -0.044 0.08700000000000001 -0.028 Q 0.081 -0.025 0.074 -0.024 Q 0.095 -0.011 0.124 -0.011 Q 0.177 -0.011 0.20800000000000002 -0.082 Q 0.214 -0.097 0.219 -0.115 Q 0.273 -0.319 0.273 -0.353 Q 0.267 -0.41500000000000004 0.219 -0.42 Q 0.167 -0.42 0.124 -0.367 L 0.124 -0.366 Q 0.124 -0.365 0.123 -0.365 Q 0.108 -0.34500000000000003 0.096 -0.319 Q 0.091 -0.307 0.08700000000000001 -0.295 L 0.085 -0.289 Q 0.083 -0.278 0.07200000000000001 -0.278 Q 0.06 -0.278 0.06 -0.28800000000000003 Q 0.06 -0.313 0.092 -0.36 Q 0.146 -0.442 0.221 -0.442 Q 0.298 -0.442 0.329 -0.366 Q 0.361 -0.428 0.41400000000000003 -0.44 Q 0.424 -0.442 0.434 -0.442 Q 0.493 -0.442 0.517 -0.40900000000000003 Q 0.527 -0.395 0.527 -0.376 Q 0.527 -0.335 0.49 -0.321 Q 0.481 -0.318 0.47300000000000003 -0.318 Q 0.442 -0.318 0.436 -0.34500000000000003 Q 0.435 -0.34900000000000003 0.435 -0.353 Q 0.435 -0.383 0.464 -0.4 Q 0.47300000000000003 -0.405 0.483 -0.40700000000000003 Q 0.462 -0.42 0.433 -0.42 Q 0.365 -0.42 0.337 -0.314 Q 0.335 -0.308 0.334 -0.302 Z"/></g><g transform="translate(4.242857142857143,13.932144714285712) scale(0.7,0.7)"><path fill="rgb(0,0,0)" stroke="none" paint-order="stroke fill markers" d=" M 0.294 -0.64 L 0.294 -0.079 Q 0.294 -0.049 0.306 -0.041 Q 0.323 -0.031 0.387 -0.031 L 0.419 -0.031 L 0.419 0 Q 0.384 -0.003 0.257 -0.003 Q 0.13 -0.003 0.095 0 L 0.095 -0.031 L 0.127 -0.031 Q 0.20400000000000001 -0.031 0.215 -0.049 L 0.216 -0.05 Q 0.22 -0.058 0.22 -0.079 L 0.22 -0.597 Q 0.168 -0.5710000000000001 0.089 -0.5710000000000001 L 0.089 -0.602 Q 0.209 -0.602 0.271 -0.666 Q 0.29 -0.666 0.293 -0.659 L 0.293 -0.659 L 0.293 -0.658 Q 0.294 -0.655 0.294 -0.64 Z"/></g><g transform="translate(3.992857142857143,15.03114471428571)"><path fill="rgb(0,0,0)" stroke="none" paint-order="stroke fill markers" d=" M 0.192 -0.616 Q 0.192 -0.585 0.164 -0.5700000000000001 Q 0.152 -0.5630000000000001 0.138 -0.5630000000000001 Q 0.105 -0.5630000000000001 0.09 -0.594 Q 0.085 -0.605 0.085 -0.616 Q 0.085 -0.647 0.113 -0.662 Q 0.125 -0.669 0.139 -0.669 Q 0.17200000000000001 -0.669 0.187 -0.638 Q 0.192 -0.627 0.192 -0.616 Z"/></g><g transform="translate(3.670857142857143,15.03114471428571)"><path fill="rgb(0,0,0)" stroke="none" paint-order="stroke fill markers" d=" M 0.334 -0.302 L 0.3 -0.165 Q 0.28300000000000003 -0.097 0.28300000000000003 -0.077 Q 0.28300000000000003 -0.025 0.32 -0.014 Q 0.328 -0.011 0.338 -0.011 Q 0.388 -0.011 0.429 -0.061 Q 0.456 -0.093 0.47100000000000003 -0.14200000000000002 Q 0.47400000000000003 -0.153 0.484 -0.153 Q 0.496 -0.153 0.496 -0.14300000000000002 Q 0.496 -0.11800000000000001 0.465 -0.07100000000000001 Q 0.41100000000000003 0.011 0.336 0.011 Q 0.268 0.011 0.23700000000000002 -0.046 Q 0.231 -0.055 0.228 -0.065 Q 0.20400000000000001 -0.017 0.162 0.002 Q 0.14300000000000002 0.011 0.123 0.011 Q 0.063 0.011 0.039 -0.024 Q 0.029 -0.037 0.029 -0.055 Q 0.029 -0.092 0.061 -0.107 Q 0.07200000000000001 -0.113 0.084 -0.113 Q 0.114 -0.113 0.12 -0.088 Q 0.121 -0.083 0.121 -0.078 Q 0.121 -0.044 0.08700000000000001 -0.028 Q 0.081 -0.025 0.074 -0.024 Q 0.095 -0.011 0.124 -0.011 Q 0.177 -0.011 0.20800000000000002 -0.082 Q 0.214 -0.097 0.219 -0.115 Q 0.273 -0.319 0.273 -0.353 Q 0.267 -0.41500000000000004 0.219 -0.42 Q 0.167 -0.42 0.124 -0.367 L 0.124 -0.366 Q 0.124 -0.365 0.123 -0.365 Q 0.108 -0.34500000000000003 0.096 -0.319 Q 0.091 -0.307 0.08700000000000001 -0.295 L 0.085 -0.289 Q 0.083 -0.278 0.07200000000000001 -0.278 Q 0.06 -0.278 0.06 -0.28800000000000003 Q 0.06 -0.313 0.092 -0.36 Q 0.146 -0.442 0.221 -0.442 Q 0.298 -0.442 0.329 -0.366 Q 0.361 -0.428 0.41400000000000003 -0.44 Q 0.424 -0.442 0.434 -0.442 Q 0.493 -0.442 0.517 -0.40900000000000003 Q 0.527 -0.395 0.527 -0.376 Q 0.527 -0.335 0.49 -0.321 Q 0.481 -0.318 0.47300000000000003 -0.318 Q 0.442 -0.318 0.436 -0.34500000000000003 Q 0.435 -0.34900000000000003 0.435 -0.353 Q 0.435 -0.383 0.464 -0.4 Q 0.47300000000000003 -0.405 0.483 -0.40700000000000003 Q 0.462 -0.42 0.433 -0.42 Q 0.365 -0.42 0.337 -0.314 Q 0.335 -0.308 0.334 -0.302 Z"/></g><g transform="translate(4.242857142857143,15.181144714285711) scale(0.7,0.7)"><path fill="rgb(0,0,0)" stroke="none" paint-order="stroke fill markers" d=" M 0.449 -0.17400000000000002 L 0.449 -0.17400000000000002 L 0.421 0 L 0.05 0 Q 0.05 -0.025 0.056 -0.032 L 0.061 -0.037 L 0.253 -0.251 Q 0.358 -0.369 0.358 -0.47200000000000003 Q 0.358 -0.561 0.304 -0.607 L 0.303 -0.608 L 0.302 -0.608 Q 0.27 -0.635 0.224 -0.635 Q 0.152 -0.635 0.109 -0.5730000000000001 Q 0.097 -0.555 0.089 -0.533 Q 0.092 -0.534 0.10200000000000001 -0.534 Q 0.14200000000000002 -0.534 0.153 -0.498 L 0.153 -0.497 Q 0.155 -0.49 0.155 -0.482 Q 0.155 -0.442 0.117 -0.431 Q 0.109 -0.429 0.10300000000000001 -0.429 Q 0.066 -0.429 0.054 -0.46 Q 0.05 -0.47100000000000003 0.05 -0.485 Q 0.05 -0.562 0.109 -0.617 Q 0.162 -0.666 0.23700000000000002 -0.666 Q 0.34700000000000003 -0.666 0.40800000000000003 -0.592 Q 0.443 -0.549 0.448 -0.49 Q 0.449 -0.481 0.449 -0.47200000000000003 Q 0.449 -0.399 0.394 -0.333 Q 0.365 -0.299 0.304 -0.243 L 0.243 -0.189 L 0.233 -0.18 L 0.127 -0.077 L 0.307 -0.077 Q 0.395 -0.077 0.402 -0.085 Q 0.41200000000000003 -0.099 0.424 -0.17400000000000002 L 0.449 -0.17400000000000002 Z"/></g><g transform="translate(4.5928571428571425,12.987644714285713)"><path fill="rgb(0,0,0)" stroke="none" paint-order="stroke fill markers" d=" M 0.01318359375 2.35888671875 L 0.01318359375 2.3017578125 L 0.22119140625 2.3017578125 L 0.22119140625 0.01708984375 L 0.01318359375 0.01708984375 L 0.01318359375 -0.0400390625 L 0.27783203125 -0.0400390625 L 0.27783203125 2.35888671875 L 0.01318359375 2.35888671875 Z"/></g><g transform="translate(5.398634920634921,14.397644714285713)"><path fill="rgb(0,0,0)" stroke="none" paint-order="stroke fill markers" d=" M 0.687 -0.327 L 0.09 -0.327 Q 0.058 -0.327 0.056 -0.34700000000000003 Q 0.056 -0.367 0.089 -0.367 L 0.6880000000000001 -0.367 Q 0.72 -0.367 0.721 -0.34700000000000003 Q 0.721 -0.327 0.687 -0.327 M 0.6880000000000001 -0.133 L 0.089 -0.133 Q 0.057 -0.133 0.056 -0.153 Q 0.056 -0.17300000000000001 0.09 -0.17300000000000001 L 0.687 -0.17300000000000001 Q 0.719 -0.17300000000000001 0.721 -0.153 Q 0.721 -0.133 0.6880000000000001 -0.133 Z"/></g><g transform="translate(6.454412698412699,11.787644714285713)"><path fill="rgb(0,0,0)" stroke="none" paint-order="stroke fill markers" d=" M 0.32421875 1.759765625 L 0.32421875 -0.0390625 L 0.6611328125 -0.0390625 L 0.6611328125 0.0341796875 L 0.39697265625 0.0341796875 L 0.39697265625 1.759765625 L 0.32421875 1.759765625 Z"/></g><g transform="translate(6.454412698412699,13.547644714285713)"><path fill="rgb(0,0,0)" stroke="none" paint-order="stroke fill markers" d=" M 0.32421875 0.60107421875 L 0.32421875 -0.0009765625 L 0.39697265625 -0.0009765625 L 0.39697265625 0.60107421875 L 0.32421875 0.60107421875 Z"/></g><g transform="translate(6.454412698412699,14.147644714285713)"><path fill="rgb(0,0,0)" stroke="none" paint-order="stroke fill markers" d=" M 0.32421875 0.60107421875 L 0.32421875 -0.0009765625 L 0.39697265625 -0.0009765625 L 0.39697265625 0.60107421875 L 0.32421875 0.60107421875 Z"/></g><g transform="translate(6.454412698412699,14.787644714285712)"><path fill="rgb(0,0,0)" stroke="none" paint-order="stroke fill markers" d=" M 0.32421875 1.7587890625 L 0.32421875 -0.0400390625 L 0.39697265625 -0.0400390625 L 0.39697265625 1.68603515625 L 0.6611328125 1.68603515625 L 0.6611328125 1.7587890625 L 0.32421875 1.7587890625 Z"/></g><g transform="translate(7.5277126984126985,13.246193714285713)"><path fill="rgb(0,0,0)" stroke="none" paint-order="stroke fill markers" d=" M 0.661 -0.23 L 0.116 -0.23 Q 0.084 -0.23 0.083 -0.25 Q 0.083 -0.27 0.116 -0.27 L 0.661 -0.27 Q 0.6930000000000001 -0.27 0.6940000000000001 -0.25 Q 0.6940000000000001 -0.23 0.661 -0.23 Z"/></g><g transform="translate(8.63830873707365,12.569685714285713)"><path fill="rgb(0,0,0)" stroke="none" paint-order="stroke fill markers" d=" M 0.396 -0.38 L 0.396 -0.38 Q 0.368 -0.41600000000000004 0.31 -0.42 Q 0.245 -0.42 0.192 -0.354 Q 0.179 -0.338 0.169 -0.32 Q 0.129 -0.247 0.117 -0.148 Q 0.115 -0.132 0.115 -0.12 Q 0.115 -0.038 0.171 -0.017 Q 0.185 -0.011 0.20500000000000002 -0.011 Q 0.295 -0.011 0.367 -0.07100000000000001 Q 0.388 -0.088 0.405 -0.11 Q 0.41200000000000003 -0.12 0.418 -0.12 Q 0.427 -0.12 0.43 -0.107 Q 0.43 -0.096 0.396 -0.064 Q 0.313 0.011 0.203 0.011 Q 0.108 0.011 0.065 -0.065 Q 0.041 -0.106 0.041 -0.158 Q 0.041 -0.26 0.11900000000000001 -0.34700000000000003 Q 0.196 -0.433 0.291 -0.441 Q 0.3 -0.442 0.309 -0.442 Q 0.386 -0.442 0.41600000000000004 -0.395 Q 0.427 -0.377 0.427 -0.356 Q 0.427 -0.312 0.392 -0.296 Q 0.382 -0.292 0.371 -0.292 Q 0.341 -0.292 0.335 -0.318 Q 0.334 -0.322 0.334 -0.327 Q 0.334 -0.34900000000000003 0.352 -0.366 Q 0.366 -0.38 0.396 -0.38 Z"/></g><rect fill="rgb(0,0,0)" stroke="none" x="8.52930873707365" y="12.976194214285712" width="0.651" height="0.039999"/><g transform="translate(8.52930873707365,13.932144714285712)"><path fill="rgb(0,0,0)" stroke="none" paint-order="stroke fill markers" d=" M 0.541 -0.61 L 0.424 -0.14300000000000002 Q 0.403 -0.059000000000000004 0.318 -0.01 Q 0.262 0.022 0.203 0.022 Q 0.122 0.022 0.08700000000000001 -0.032 Q 0.07100000000000001 -0.057 0.07100000000000001 -0.08700000000000001 Q 0.07100000000000001 -0.151 0.122 -0.165 Q 0.131 -0.167 0.138 -0.167 Q 0.169 -0.167 0.179 -0.14200000000000002 L 0.179 -0.14100000000000001 Q 0.182 -0.134 0.182 -0.125 Q 0.182 -0.091 0.152 -0.07100000000000001 Q 0.136 -0.061 0.117 -0.061 Q 0.108 -0.061 0.105 -0.062 Q 0.122 -0.007 0.189 -0.001 Q 0.195 0 0.2 0 Q 0.253 0 0.299 -0.057 Q 0.331 -0.096 0.34400000000000003 -0.15 L 0.459 -0.609 Q 0.463 -0.625 0.463 -0.63 Q 0.463 -0.644 0.447 -0.647 Q 0.442 -0.649 0.432 -0.65 Q 0.40700000000000003 -0.652 0.374 -0.652 Q 0.343 -0.652 0.341 -0.658 Q 0.34 -0.66 0.34 -0.663 Q 0.34 -0.683 0.361 -0.683 L 0.507 -0.68 L 0.508 -0.68 L 0.618 -0.683 L 0.619 -0.683 Q 0.633 -0.683 0.633 -0.671 Q 0.623 -0.653 0.606 -0.652 Q 0.559 -0.652 0.55 -0.637 Q 0.546 -0.63 0.541 -0.61 Z"/></g><g transform="translate(10.824500814395556,12.569685714285713)"><path fill="rgb(0,0,0)" stroke="none" paint-order="stroke fill markers" d=" M 0.509 -0.404 L 0.509 -0.404 L 0.651 -0.076 Q 0.666 -0.042 0.6880000000000001 -0.035 L 0.6890000000000001 -0.035 L 0.6900000000000001 -0.035 L 0.6900000000000001 -0.035 Q 0.7010000000000001 -0.031 0.72 -0.031 Q 0.74 -0.031 0.74 -0.02 Q 0.74 0 0.722 0 L 0.625 -0.003 L 0.624 -0.003 L 0.505 0 L 0.502 0 Q 0.488 0 0.488 -0.011 Q 0.494 -0.03 0.51 -0.031 Q 0.562 -0.031 0.562 -0.062 Q 0.562 -0.07 0.55 -0.097 L 0.434 -0.366 L 0.28500000000000003 -0.25 Q 0.256 -0.132 0.245 -0.093 Q 0.23600000000000002 -0.048 0.23600000000000002 -0.049 Q 0.23600000000000002 -0.032 0.28200000000000003 -0.031 L 0.28200000000000003 -0.031 L 0.28200000000000003 -0.031 L 0.301 -0.031 Q 0.327 -0.031 0.329 -0.02 Q 0.329 0 0.309 0 L 0.245 -0.002 L 0.244 -0.002 L 0.182 -0.003 L 0.18 -0.003 L 0.054 0 L 0.053 0 Q 0.038 0 0.038 -0.012 Q 0.038 -0.029 0.054 -0.031 L 0.066 -0.031 Q 0.131 -0.031 0.14400000000000002 -0.045 Q 0.15 -0.052000000000000005 0.156 -0.073 Q 0.156 -0.074 0.157 -0.078 L 0.291 -0.615 Q 0.295 -0.631 0.295 -0.634 Q 0.295 -0.646 0.279 -0.649 L 0.278 -0.649 L 0.278 -0.649 Q 0.276 -0.65 0.273 -0.65 Q 0.249 -0.652 0.23 -0.652 Q 0.20400000000000001 -0.652 0.202 -0.66 Q 0.201 -0.662 0.201 -0.664 Q 0.201 -0.683 0.221 -0.683 L 0.34900000000000003 -0.68 L 0.35000000000000003 -0.68 L 0.47700000000000004 -0.683 L 0.47800000000000004 -0.683 Q 0.492 -0.683 0.492 -0.672 Q 0.492 -0.655 0.47700000000000004 -0.653 L 0.47700000000000004 -0.653 Q 0.47200000000000003 -0.652 0.458 -0.652 Q 0.397 -0.652 0.385 -0.636 Q 0.38 -0.629 0.374 -0.606 L 0.294 -0.28500000000000003 L 0.684 -0.585 Q 0.72 -0.615 0.72 -0.631 Q 0.72 -0.648 0.6930000000000001 -0.652 L 0.6930000000000001 -0.652 L 0.6890000000000001 -0.652 Q 0.677 -0.654 0.677 -0.663 Q 0.677 -0.683 0.6960000000000001 -0.683 L 0.806 -0.68 L 0.807 -0.68 L 0.877 -0.683 L 0.878 -0.683 Q 0.889 -0.683 0.889 -0.672 Q 0.889 -0.655 0.871 -0.652 Q 0.8160000000000001 -0.646 0.753 -0.607 Q 0.732 -0.594 0.708 -0.5760000000000001 L 0.533 -0.441 Q 0.504 -0.42 0.504 -0.418 L 0.509 -0.404 Z"/></g><g transform="translate(11.673500814395556,12.719685714285713) scale(0.7,0.7)"><path fill="rgb(0,0,0)" stroke="none" paint-order="stroke fill markers" d=" M 0.088 -0.059000000000000004 L 0.088 -0.059000000000000004 L 0.146 -0.29 Q 0.162 -0.354 0.162 -0.374 Q 0.162 -0.42 0.131 -0.42 Q 0.09 -0.42 0.064 -0.325 Q 0.061 -0.314 0.058 -0.301 Q 0.047 -0.279 0.041 -0.278 Q 0.029 -0.278 0.029 -0.28800000000000003 Q 0.029 -0.304 0.048 -0.356 Q 0.054 -0.373 0.06 -0.385 Q 0.084 -0.434 0.12 -0.441 Q 0.127 -0.442 0.134 -0.442 Q 0.188 -0.442 0.214 -0.397 Q 0.224 -0.378 0.226 -0.355 Q 0.29 -0.442 0.382 -0.442 Q 0.433 -0.442 0.464 -0.41600000000000004 Q 0.492 -0.392 0.496 -0.34500000000000003 Q 0.5640000000000001 -0.442 0.659 -0.442 Q 0.748 -0.442 0.769 -0.373 L 0.769 -0.372 Q 0.774 -0.355 0.774 -0.335 Q 0.774 -0.28200000000000003 0.713 -0.115 Q 0.6950000000000001 -0.07100000000000001 0.6950000000000001 -0.044 Q 0.6950000000000001 -0.011 0.719 -0.011 Q 0.781 -0.011 0.8170000000000001 -0.121 L 0.8210000000000001 -0.135 Q 0.8260000000000001 -0.151 0.8310000000000001 -0.152 L 0.8310000000000001 -0.153 L 0.836 -0.153 Q 0.848 -0.153 0.848 -0.14300000000000002 Q 0.848 -0.126 0.8270000000000001 -0.08 Q 0.784 0.011 0.717 0.011 Q 0.666 0.011 0.644 -0.032 Q 0.635 -0.05 0.635 -0.07100000000000001 Q 0.635 -0.091 0.648 -0.126 Q 0.71 -0.29 0.71 -0.35000000000000003 Q 0.71 -0.42 0.656 -0.42 Q 0.5680000000000001 -0.42 0.51 -0.325 Q 0.494 -0.3 0.491 -0.28700000000000003 Q 0.488 -0.274 0.431 -0.046 Q 0.42 -0.003 0.406 0.006 L 0.405 0.007 L 0.404 0.007 Q 0.397 0.011 0.386 0.011 Q 0.361 0.006 0.357 -0.016 L 0.37 -0.075 L 0.39 -0.151 L 0.418 -0.267 Q 0.433 -0.323 0.433 -0.35000000000000003 Q 0.433 -0.42 0.379 -0.42 Q 0.289 -0.42 0.228 -0.32 Q 0.221 -0.309 0.216 -0.298 L 0.203 -0.248 Q 0.198 -0.225 0.186 -0.181 L 0.164 -0.091 Q 0.147 -0.022 0.145 -0.017 Q 0.136 0.009000000000000001 0.108 0.011 Q 0.083 0.006 0.079 -0.016 Q 0.079 -0.014 0.088 -0.059000000000000004 Z"/></g><rect fill="rgb(0,0,0)" stroke="none" x="10.824500814395556" y="12.976194214285714" width="1.4636" height="0.039999"/><g transform="translate(11.215800814395555,13.932144714285714)"><path fill="rgb(0,0,0)" stroke="none" paint-order="stroke fill markers" d=" M 0.374 -0.605 L 0.23900000000000002 -0.065 Q 0.234 -0.047 0.234 -0.042 Q 0.234 -0.034 0.243 -0.032 L 0.243 -0.032 L 0.243 -0.032 L 0.247 -0.032 Q 0.253 -0.031 0.269 -0.031 L 0.363 -0.031 Q 0.509 -0.031 0.5750000000000001 -0.147 Q 0.592 -0.177 0.614 -0.23700000000000002 Q 0.622 -0.256 0.627 -0.257 L 0.628 -0.258 L 0.631 -0.258 Q 0.642 -0.258 0.643 -0.247 Q 0.643 -0.244 0.639 -0.233 L 0.56 -0.017 Q 0.555 -0.002 0.547 -0.001 L 0.547 -0.001 L 0.546 -0.001 Q 0.542 0 0.529 0 L 0.066 0 Q 0.041 0 0.039 -0.011 Q 0.039 -0.029 0.054 -0.031 L 0.066 -0.031 Q 0.131 -0.031 0.14400000000000002 -0.045 Q 0.15 -0.052000000000000005 0.156 -0.073 Q 0.156 -0.074 0.157 -0.078 L 0.291 -0.615 Q 0.295 -0.631 0.295 -0.634 Q 0.295 -0.646 0.279 -0.649 L 0.278 -0.649 L 0.277 -0.649 Q 0.274 -0.649 0.268 -0.65 Q 0.251 -0.652 0.23 -0.652 Q 0.20400000000000001 -0.652 0.202 -0.663 Q 0.202 -0.683 0.221 -0.683 L 0.353 -0.68 L 0.354 -0.68 L 0.501 -0.683 L 0.502 -0.683 Q 0.518 -0.683 0.518 -0.671 Q 0.518 -0.655 0.505 -0.653 Q 0.499 -0.652 0.48 -0.652 Q 0.401 -0.652 0.386 -0.635 Q 0.38 -0.628 0.374 -0.605 Z"/></g><g transform="translate(7.121412698412699,15.722652714285712)"><path fill="rgb(0,0,0)" stroke="none" paint-order="stroke fill markers" d=" M 0.661 -0.23 L 0.116 -0.23 Q 0.084 -0.23 0.083 -0.25 Q 0.083 -0.27 0.116 -0.27 L 0.661 -0.27 Q 0.6930000000000001 -0.27 0.6940000000000001 -0.25 Q 0.6940000000000001 -0.23 0.661 -0.23 Z"/></g><g transform="translate(8.12300873707365,15.046144714285711)"><path fill="rgb(0,0,0)" stroke="none" paint-order="stroke fill markers" d=" M 0.509 -0.404 L 0.509 -0.404 L 0.651 -0.076 Q 0.666 -0.042 0.6880000000000001 -0.035 L 0.6890000000000001 -0.035 L 0.6900000000000001 -0.035 L 0.6900000000000001 -0.035 Q 0.7010000000000001 -0.031 0.72 -0.031 Q 0.74 -0.031 0.74 -0.02 Q 0.74 0 0.722 0 L 0.625 -0.003 L 0.624 -0.003 L 0.505 0 L 0.502 0 Q 0.488 0 0.488 -0.011 Q 0.494 -0.03 0.51 -0.031 Q 0.562 -0.031 0.562 -0.062 Q 0.562 -0.07 0.55 -0.097 L 0.434 -0.366 L 0.28500000000000003 -0.25 Q 0.256 -0.132 0.245 -0.093 Q 0.23600000000000002 -0.048 0.23600000000000002 -0.049 Q 0.23600000000000002 -0.032 0.28200000000000003 -0.031 L 0.28200000000000003 -0.031 L 0.28200000000000003 -0.031 L 0.301 -0.031 Q 0.327 -0.031 0.329 -0.02 Q 0.329 0 0.309 0 L 0.245 -0.002 L 0.244 -0.002 L 0.182 -0.003 L 0.18 -0.003 L 0.054 0 L 0.053 0 Q 0.038 0 0.038 -0.012 Q 0.038 -0.029 0.054 -0.031 L 0.066 -0.031 Q 0.131 -0.031 0.14400000000000002 -0.045 Q 0.15 -0.052000000000000005 0.156 -0.073 Q 0.156 -0.074 0.157 -0.078 L 0.291 -0.615 Q 0.295 -0.631 0.295 -0.634 Q 0.295 -0.646 0.279 -0.649 L 0.278 -0.649 L 0.278 -0.649 Q 0.276 -0.65 0.273 -0.65 Q 0.249 -0.652 0.23 -0.652 Q 0.20400000000000001 -0.652 0.202 -0.66 Q 0.201 -0.662 0.201 -0.664 Q 0.201 -0.683 0.221 -0.683 L 0.34900000000000003 -0.68 L 0.35000000000000003 -0.68 L 0.47700000000000004 -0.683 L 0.47800000000000004 -0.683 Q 0.492 -0.683 0.492 -0.672 Q 0.492 -0.655 0.47700000000000004 -0.653 L 0.47700000000000004 -0.653 Q 0.47200000000000003 -0.652 0.458 -0.652 Q 0.397 -0.652 0.385 -0.636 Q 0.38 -0.629 0.374 -0.606 L 0.294 -0.28500000000000003 L 0.684 -0.585 Q 0.72 -0.615 0.72 -0.631 Q 0.72 -0.648 0.6930000000000001 -0.652 L 0.6930000000000001 -0.652 L 0.6890000000000001 -0.652 Q 0.677 -0.654 0.677 -0.663 Q 0.677 -0.683 0.6960000000000001 -0.683 L 0.806 -0.68 L 0.807 -0.68 L 0.877 -0.683 L 0.878 -0.683 Q 0.889 -0.683 0.889 -0.672 Q 0.889 -0.655 0.871 -0.652 Q 0.8160000000000001 -0.646 0.753 -0.607 Q 0.732 -0.594 0.708 -0.5760000000000001 L 0.533 -0.441 Q 0.504 -0.42 0.504 -0.418 L 0.509 -0.404 Z"/></g><g transform="translate(8.97200873707365,15.196144714285712) scale(0.7,0.7)"><path fill="rgb(0,0,0)" stroke="none" paint-order="stroke fill markers" d=" M 0.088 -0.059000000000000004 L 0.088 -0.059000000000000004 L 0.146 -0.29 Q 0.162 -0.354 0.162 -0.374 Q 0.162 -0.42 0.131 -0.42 Q 0.09 -0.42 0.064 -0.325 Q 0.061 -0.314 0.058 -0.301 Q 0.047 -0.279 0.041 -0.278 Q 0.029 -0.278 0.029 -0.28800000000000003 Q 0.029 -0.304 0.048 -0.356 Q 0.054 -0.373 0.06 -0.385 Q 0.084 -0.434 0.12 -0.441 Q 0.127 -0.442 0.134 -0.442 Q 0.188 -0.442 0.214 -0.397 Q 0.224 -0.378 0.226 -0.355 Q 0.29 -0.442 0.382 -0.442 Q 0.433 -0.442 0.464 -0.41600000000000004 Q 0.492 -0.392 0.496 -0.34500000000000003 Q 0.5640000000000001 -0.442 0.659 -0.442 Q 0.748 -0.442 0.769 -0.373 L 0.769 -0.372 Q 0.774 -0.355 0.774 -0.335 Q 0.774 -0.28200000000000003 0.713 -0.115 Q 0.6950000000000001 -0.07100000000000001 0.6950000000000001 -0.044 Q 0.6950000000000001 -0.011 0.719 -0.011 Q 0.781 -0.011 0.8170000000000001 -0.121 L 0.8210000000000001 -0.135 Q 0.8260000000000001 -0.151 0.8310000000000001 -0.152 L 0.8310000000000001 -0.153 L 0.836 -0.153 Q 0.848 -0.153 0.848 -0.14300000000000002 Q 0.848 -0.126 0.8270000000000001 -0.08 Q 0.784 0.011 0.717 0.011 Q 0.666 0.011 0.644 -0.032 Q 0.635 -0.05 0.635 -0.07100000000000001 Q 0.635 -0.091 0.648 -0.126 Q 0.71 -0.29 0.71 -0.35000000000000003 Q 0.71 -0.42 0.656 -0.42 Q 0.5680000000000001 -0.42 0.51 -0.325 Q 0.494 -0.3 0.491 -0.28700000000000003 Q 0.488 -0.274 0.431 -0.046 Q 0.42 -0.003 0.406 0.006 L 0.405 0.007 L 0.404 0.007 Q 0.397 0.011 0.386 0.011 Q 0.361 0.006 0.357 -0.016 L 0.37 -0.075 L 0.39 -0.151 L 0.418 -0.267 Q 0.433 -0.323 0.433 -0.35000000000000003 Q 0.433 -0.42 0.379 -0.42 Q 0.289 -0.42 0.228 -0.32 Q 0.221 -0.309 0.216 -0.298 L 0.203 -0.248 Q 0.198 -0.225 0.186 -0.181 L 0.164 -0.091 Q 0.147 -0.022 0.145 -0.017 Q 0.136 0.009000000000000001 0.108 0.011 Q 0.083 0.006 0.079 -0.016 Q 0.079 -0.014 0.088 -0.059000000000000004 Z"/></g><rect fill="rgb(0,0,0)" stroke="none" x="8.12300873707365" y="15.452653214285712" width="1.4636" height="0.039999"/><g transform="translate(8.51430873707365,16.408603714285714)"><path fill="rgb(0,0,0)" stroke="none" paint-order="stroke fill markers" d=" M 0.374 -0.605 L 0.23900000000000002 -0.065 Q 0.234 -0.047 0.234 -0.042 Q 0.234 -0.034 0.243 -0.032 L 0.243 -0.032 L 0.243 -0.032 L 0.247 -0.032 Q 0.253 -0.031 0.269 -0.031 L 0.363 -0.031 Q 0.509 -0.031 0.5750000000000001 -0.147 Q 0.592 -0.177 0.614 -0.23700000000000002 Q 0.622 -0.256 0.627 -0.257 L 0.628 -0.258 L 0.631 -0.258 Q 0.642 -0.258 0.643 -0.247 Q 0.643 -0.244 0.639 -0.233 L 0.56 -0.017 Q 0.555 -0.002 0.547 -0.001 L 0.547 -0.001 L 0.546 -0.001 Q 0.542 0 0.529 0 L 0.066 0 Q 0.041 0 0.039 -0.011 Q 0.039 -0.029 0.054 -0.031 L 0.066 -0.031 Q 0.131 -0.031 0.14400000000000002 -0.045 Q 0.15 -0.052000000000000005 0.156 -0.073 Q 0.156 -0.074 0.157 -0.078 L 0.291 -0.615 Q 0.295 -0.631 0.295 -0.634 Q 0.295 -0.646 0.279 -0.649 L 0.278 -0.649 L 0.277 -0.649 Q 0.274 -0.649 0.268 -0.65 Q 0.251 -0.652 0.23 -0.652 Q 0.20400000000000001 -0.652 0.202 -0.663 Q 0.202 -0.683 0.221 -0.683 L 0.353 -0.68 L 0.354 -0.68 L 0.501 -0.683 L 0.502 -0.683 Q 0.518 -0.683 0.518 -0.671 Q 0.518 -0.655 0.505 -0.653 Q 0.499 -0.652 0.48 -0.652 Q 0.401 -0.652 0.386 -0.635 Q 0.38 -0.628 0.374 -0.605 Z"/></g><g transform="translate(10.643538109067936,15.722652714285712)"><path fill="rgb(0,0,0)" stroke="none" paint-order="stroke fill markers" d=" M 0.661 -0.23 L 0.116 -0.23 Q 0.084 -0.23 0.083 -0.25 Q 0.083 -0.27 0.116 -0.27 L 0.661 -0.27 Q 0.6930000000000001 -0.27 0.6940000000000001 -0.25 Q 0.6940000000000001 -0.23 0.661 -0.23 Z"/></g><g transform="translate(11.64513414772889,15.046144714285711)"><path fill="rgb(0,0,0)" stroke="none" paint-order="stroke fill markers" d=" M 0.375 -0.614 L 0.31 -0.353 L 0.422 -0.353 Q 0.533 -0.353 0.591 -0.41100000000000003 Q 0.635 -0.455 0.645 -0.533 L 0.645 -0.534 Q 0.646 -0.545 0.646 -0.553 Q 0.646 -0.642 0.52 -0.651 L 0.518 -0.651 Q 0.499 -0.652 0.464 -0.652 Q 0.41200000000000003 -0.652 0.403 -0.651 Q 0.385 -0.648 0.379 -0.629 L 0.379 -0.629 Q 0.378 -0.624 0.375 -0.614 M 0.519 -0.34 L 0.519 -0.34 Q 0.605 -0.308 0.612 -0.23500000000000001 Q 0.613 -0.229 0.613 -0.222 Q 0.613 -0.203 0.609 -0.17500000000000002 Q 0.599 -0.095 0.599 -0.061 Q 0.599 -0.009000000000000001 0.625 -0.002 L 0.626 -0.002 Q 0.632 0 0.639 0 Q 0.682 0 0.712 -0.052000000000000005 Q 0.723 -0.069 0.73 -0.091 Q 0.734 -0.105 0.743 -0.105 Q 0.755 -0.105 0.755 -0.093 Q 0.755 -0.073 0.731 -0.037 Q 0.712 -0.008 0.687 0.008 Q 0.663 0.022 0.635 0.022 Q 0.552 0.022 0.519 -0.027 Q 0.502 -0.051000000000000004 0.502 -0.08600000000000001 Q 0.502 -0.107 0.518 -0.171 Q 0.532 -0.225 0.532 -0.24 Q 0.532 -0.302 0.47600000000000003 -0.322 L 0.47600000000000003 -0.323 Q 0.453 -0.331 0.423 -0.331 L 0.304 -0.331 L 0.23800000000000002 -0.066 L 0.23500000000000001 -0.049 Q 0.23500000000000001 -0.032 0.281 -0.031 L 0.281 -0.031 L 0.281 -0.031 L 0.3 -0.031 Q 0.326 -0.031 0.328 -0.02 Q 0.328 0 0.308 0 L 0.182 -0.003 L 0.181 -0.003 L 0.056 0 L 0.055 0 Q 0.041 0 0.041 -0.011 Q 0.041 -0.029 0.056 -0.031 L 0.068 -0.031 Q 0.133 -0.031 0.146 -0.045 Q 0.152 -0.052000000000000005 0.158 -0.073 Q 0.158 -0.074 0.159 -0.078 L 0.293 -0.615 Q 0.297 -0.631 0.297 -0.634 Q 0.297 -0.646 0.281 -0.649 L 0.28 -0.649 L 0.279 -0.649 Q 0.276 -0.649 0.27 -0.65 Q 0.253 -0.652 0.232 -0.652 Q 0.20600000000000002 -0.652 0.20400000000000001 -0.663 Q 0.20400000000000001 -0.681 0.219 -0.683 L 0.233 -0.683 L 0.518 -0.683 Q 0.643 -0.683 0.704 -0.617 Q 0.739 -0.581 0.739 -0.533 Q 0.739 -0.446 0.632 -0.384 Q 0.58 -0.353 0.519 -0.34 Z"/></g><rect fill="rgb(0,0,0)" stroke="none" x="11.64513414772889" y="15.45265321428571" width="0.767" height="0.039999"/><g transform="translate(11.688134147728888,16.40860371428571)"><path fill="rgb(0,0,0)" stroke="none" paint-order="stroke fill markers" d=" M 0.374 -0.605 L 0.23900000000000002 -0.065 Q 0.234 -0.047 0.234 -0.042 Q 0.234 -0.034 0.243 -0.032 L 0.243 -0.032 L 0.243 -0.032 L 0.247 -0.032 Q 0.253 -0.031 0.269 -0.031 L 0.363 -0.031 Q 0.509 -0.031 0.5750000000000001 -0.147 Q 0.592 -0.177 0.614 -0.23700000000000002 Q 0.622 -0.256 0.627 -0.257 L 0.628 -0.258 L 0.631 -0.258 Q 0.642 -0.258 0.643 -0.247 Q 0.643 -0.244 0.639 -0.233 L 0.56 -0.017 Q 0.555 -0.002 0.547 -0.001 L 0.547 -0.001 L 0.546 -0.001 Q 0.542 0 0.529 0 L 0.066 0 Q 0.041 0 0.039 -0.011 Q 0.039 -0.029 0.054 -0.031 L 0.066 -0.031 Q 0.131 -0.031 0.14400000000000002 -0.045 Q 0.15 -0.052000000000000005 0.156 -0.073 Q 0.156 -0.074 0.157 -0.078 L 0.291 -0.615 Q 0.295 -0.631 0.295 -0.634 Q 0.295 -0.646 0.279 -0.649 L 0.278 -0.649 L 0.277 -0.649 Q 0.274 -0.649 0.268 -0.65 Q 0.251 -0.652 0.23 -0.652 Q 0.20400000000000001 -0.652 0.202 -0.663 Q 0.202 -0.683 0.221 -0.683 L 0.353 -0.68 L 0.354 -0.68 L 0.501 -0.683 L 0.502 -0.683 Q 0.518 -0.683 0.518 -0.671 Q 0.518 -0.655 0.505 -0.653 Q 0.499 -0.652 0.48 -0.652 Q 0.401 -0.652 0.386 -0.635 Q 0.38 -0.628 0.374 -0.605 Z"/></g><g transform="translate(12.469063519723175,11.787644714285713)"><path fill="rgb(0,0,0)" stroke="none" paint-order="stroke fill markers" d=" M 0.26904296875 1.759765625 L 0.26904296875 0.0341796875 L 0.0048828125 0.0341796875 L 0.0048828125 -0.0390625 L 0.341796875 -0.0390625 L 0.341796875 1.759765625 L 0.26904296875 1.759765625 Z"/></g><g transform="translate(12.469063519723175,13.547644714285713)"><path fill="rgb(0,0,0)" stroke="none" paint-order="stroke fill markers" d=" M 0.26904296875 0.60107421875 L 0.26904296875 -0.0009765625 L 0.341796875 -0.0009765625 L 0.341796875 0.60107421875 L 0.26904296875 0.60107421875 Z"/></g><g transform="translate(12.469063519723175,14.147644714285713)"><path fill="rgb(0,0,0)" stroke="none" paint-order="stroke fill markers" d=" M 0.26904296875 0.60107421875 L 0.26904296875 -0.0009765625 L 0.341796875 -0.0009765625 L 0.341796875 0.60107421875 L 0.26904296875 0.60107421875 Z"/></g><g transform="translate(12.469063519723175,14.787644714285712)"><path fill="rgb(0,0,0)" stroke="none" paint-order="stroke fill markers" d=" M 0.0048828125 1.7587890625 L 0.0048828125 1.68603515625 L 0.26904296875 1.68603515625 L 0.26904296875 -0.0400390625 L 0.341796875 -0.0400390625 L 0.341796875 1.7587890625 L 0.0048828125 1.7587890625 Z"/></g><g transform="translate(13.136063519723175,13.287644714285713)"><path fill="rgb(0,0,0)" stroke="none" paint-order="stroke fill markers" d=" M 0.22607421875 1.7587890625 L 0.22607421875 -0.0400390625 L 0.453125 -0.0400390625 L 0.453125 0.0078125 L 0.27392578125 0.0078125 L 0.27392578125 1.7109375 L 0.453125 1.7109375 L 0.453125 1.7587890625 L 0.22607421875 1.7587890625 Z"/></g><g transform="translate(13.608063519723174,13.782144714285712)"><path fill="rgb(0,0,0)" stroke="none" paint-order="stroke fill markers" d=" M 0.334 -0.302 L 0.3 -0.165 Q 0.28300000000000003 -0.097 0.28300000000000003 -0.077 Q 0.28300000000000003 -0.025 0.32 -0.014 Q 0.328 -0.011 0.338 -0.011 Q 0.388 -0.011 0.429 -0.061 Q 0.456 -0.093 0.47100000000000003 -0.14200000000000002 Q 0.47400000000000003 -0.153 0.484 -0.153 Q 0.496 -0.153 0.496 -0.14300000000000002 Q 0.496 -0.11800000000000001 0.465 -0.07100000000000001 Q 0.41100000000000003 0.011 0.336 0.011 Q 0.268 0.011 0.23700000000000002 -0.046 Q 0.231 -0.055 0.228 -0.065 Q 0.20400000000000001 -0.017 0.162 0.002 Q 0.14300000000000002 0.011 0.123 0.011 Q 0.063 0.011 0.039 -0.024 Q 0.029 -0.037 0.029 -0.055 Q 0.029 -0.092 0.061 -0.107 Q 0.07200000000000001 -0.113 0.084 -0.113 Q 0.114 -0.113 0.12 -0.088 Q 0.121 -0.083 0.121 -0.078 Q 0.121 -0.044 0.08700000000000001 -0.028 Q 0.081 -0.025 0.074 -0.024 Q 0.095 -0.011 0.124 -0.011 Q 0.177 -0.011 0.20800000000000002 -0.082 Q 0.214 -0.097 0.219 -0.115 Q 0.273 -0.319 0.273 -0.353 Q 0.267 -0.41500000000000004 0.219 -0.42 Q 0.167 -0.42 0.124 -0.367 L 0.124 -0.366 Q 0.124 -0.365 0.123 -0.365 Q 0.108 -0.34500000000000003 0.096 -0.319 Q 0.091 -0.307 0.08700000000000001 -0.295 L 0.085 -0.289 Q 0.083 -0.278 0.07200000000000001 -0.278 Q 0.06 -0.278 0.06 -0.28800000000000003 Q 0.06 -0.313 0.092 -0.36 Q 0.146 -0.442 0.221 -0.442 Q 0.298 -0.442 0.329 -0.366 Q 0.361 -0.428 0.41400000000000003 -0.44 Q 0.424 -0.442 0.434 -0.442 Q 0.493 -0.442 0.517 -0.40900000000000003 Q 0.527 -0.395 0.527 -0.376 Q 0.527 -0.335 0.49 -0.321 Q 0.481 -0.318 0.47300000000000003 -0.318 Q 0.442 -0.318 0.436 -0.34500000000000003 Q 0.435 -0.34900000000000003 0.435 -0.353 Q 0.435 -0.383 0.464 -0.4 Q 0.47300000000000003 -0.405 0.483 -0.40700000000000003 Q 0.462 -0.42 0.433 -0.42 Q 0.365 -0.42 0.337 -0.314 Q 0.335 -0.308 0.334 -0.302 Z"/></g><g transform="translate(14.180063519723173,13.932144714285712) scale(0.7,0.7)"><path fill="rgb(0,0,0)" stroke="none" paint-order="stroke fill markers" d=" M 0.294 -0.64 L 0.294 -0.079 Q 0.294 -0.049 0.306 -0.041 Q 0.323 -0.031 0.387 -0.031 L 0.419 -0.031 L 0.419 0 Q 0.384 -0.003 0.257 -0.003 Q 0.13 -0.003 0.095 0 L 0.095 -0.031 L 0.127 -0.031 Q 0.20400000000000001 -0.031 0.215 -0.049 L 0.216 -0.05 Q 0.22 -0.058 0.22 -0.079 L 0.22 -0.597 Q 0.168 -0.5710000000000001 0.089 -0.5710000000000001 L 0.089 -0.602 Q 0.209 -0.602 0.271 -0.666 Q 0.29 -0.666 0.293 -0.659 L 0.293 -0.659 L 0.293 -0.658 Q 0.294 -0.655 0.294 -0.64 Z"/></g><g transform="translate(13.608063519723174,14.79414471428571)"><path fill="rgb(0,0,0)" stroke="none" paint-order="stroke fill markers" d=" M 0.334 -0.302 L 0.3 -0.165 Q 0.28300000000000003 -0.097 0.28300000000000003 -0.077 Q 0.28300000000000003 -0.025 0.32 -0.014 Q 0.328 -0.011 0.338 -0.011 Q 0.388 -0.011 0.429 -0.061 Q 0.456 -0.093 0.47100000000000003 -0.14200000000000002 Q 0.47400000000000003 -0.153 0.484 -0.153 Q 0.496 -0.153 0.496 -0.14300000000000002 Q 0.496 -0.11800000000000001 0.465 -0.07100000000000001 Q 0.41100000000000003 0.011 0.336 0.011 Q 0.268 0.011 0.23700000000000002 -0.046 Q 0.231 -0.055 0.228 -0.065 Q 0.20400000000000001 -0.017 0.162 0.002 Q 0.14300000000000002 0.011 0.123 0.011 Q 0.063 0.011 0.039 -0.024 Q 0.029 -0.037 0.029 -0.055 Q 0.029 -0.092 0.061 -0.107 Q 0.07200000000000001 -0.113 0.084 -0.113 Q 0.114 -0.113 0.12 -0.088 Q 0.121 -0.083 0.121 -0.078 Q 0.121 -0.044 0.08700000000000001 -0.028 Q 0.081 -0.025 0.074 -0.024 Q 0.095 -0.011 0.124 -0.011 Q 0.177 -0.011 0.20800000000000002 -0.082 Q 0.214 -0.097 0.219 -0.115 Q 0.273 -0.319 0.273 -0.353 Q 0.267 -0.41500000000000004 0.219 -0.42 Q 0.167 -0.42 0.124 -0.367 L 0.124 -0.366 Q 0.124 -0.365 0.123 -0.365 Q 0.108 -0.34500000000000003 0.096 -0.319 Q 0.091 -0.307 0.08700000000000001 -0.295 L 0.085 -0.289 Q 0.083 -0.278 0.07200000000000001 -0.278 Q 0.06 -0.278 0.06 -0.28800000000000003 Q 0.06 -0.313 0.092 -0.36 Q 0.146 -0.442 0.221 -0.442 Q 0.298 -0.442 0.329 -0.366 Q 0.361 -0.428 0.41400000000000003 -0.44 Q 0.424 -0.442 0.434 -0.442 Q 0.493 -0.442 0.517 -0.40900000000000003 Q 0.527 -0.395 0.527 -0.376 Q 0.527 -0.335 0.49 -0.321 Q 0.481 -0.318 0.47300000000000003 -0.318 Q 0.442 -0.318 0.436 -0.34500000000000003 Q 0.435 -0.34900000000000003 0.435 -0.353 Q 0.435 -0.383 0.464 -0.4 Q 0.47300000000000003 -0.405 0.483 -0.40700000000000003 Q 0.462 -0.42 0.433 -0.42 Q 0.365 -0.42 0.337 -0.314 Q 0.335 -0.308 0.334 -0.302 Z"/></g><g transform="translate(14.180063519723173,14.944144714285711) scale(0.7,0.7)"><path fill="rgb(0,0,0)" stroke="none" paint-order="stroke fill markers" d=" M 0.449 -0.17400000000000002 L 0.449 -0.17400000000000002 L 0.421 0 L 0.05 0 Q 0.05 -0.025 0.056 -0.032 L 0.061 -0.037 L 0.253 -0.251 Q 0.358 -0.369 0.358 -0.47200000000000003 Q 0.358 -0.561 0.304 -0.607 L 0.303 -0.608 L 0.302 -0.608 Q 0.27 -0.635 0.224 -0.635 Q 0.152 -0.635 0.109 -0.5730000000000001 Q 0.097 -0.555 0.089 -0.533 Q 0.092 -0.534 0.10200000000000001 -0.534 Q 0.14200000000000002 -0.534 0.153 -0.498 L 0.153 -0.497 Q 0.155 -0.49 0.155 -0.482 Q 0.155 -0.442 0.117 -0.431 Q 0.109 -0.429 0.10300000000000001 -0.429 Q 0.066 -0.429 0.054 -0.46 Q 0.05 -0.47100000000000003 0.05 -0.485 Q 0.05 -0.562 0.109 -0.617 Q 0.162 -0.666 0.23700000000000002 -0.666 Q 0.34700000000000003 -0.666 0.40800000000000003 -0.592 Q 0.443 -0.549 0.448 -0.49 Q 0.449 -0.481 0.449 -0.47200000000000003 Q 0.449 -0.399 0.394 -0.333 Q 0.365 -0.299 0.304 -0.243 L 0.243 -0.189 L 0.233 -0.18 L 0.127 -0.077 L 0.307 -0.077 Q 0.395 -0.077 0.402 -0.085 Q 0.41200000000000003 -0.099 0.424 -0.17400000000000002 L 0.449 -0.17400000000000002 Z"/></g><g transform="translate(14.530063519723175,13.287644714285713)"><path fill="rgb(0,0,0)" stroke="none" paint-order="stroke fill markers" d=" M 0.01806640625 1.7587890625 L 0.01806640625 1.7109375 L 0.19677734375 1.7109375 L 0.19677734375 0.0078125 L 0.01806640625 0.0078125 L 0.01806640625 -0.0400390625 L 0.2451171875 -0.0400390625 L 0.2451171875 1.7587890625 L 0.01806640625 1.7587890625 Z"/></g><g transform="translate(15.16873018638984,14.397644714285713)"><path fill="rgb(0,0,0)" stroke="none" paint-order="stroke fill markers" d=" M 0.40900000000000003 -0.23 L 0.40900000000000003 0.05 Q 0.40900000000000003 0.082 0.389 0.083 Q 0.369 0.083 0.369 0.05 L 0.369 -0.23 L 0.089 -0.23 Q 0.057 -0.23 0.056 -0.25 Q 0.056 -0.27 0.089 -0.27 L 0.369 -0.27 L 0.369 -0.55 Q 0.369 -0.582 0.389 -0.583 Q 0.40900000000000003 -0.583 0.40900000000000003 -0.55 L 0.40900000000000003 -0.27 L 0.6880000000000001 -0.27 Q 0.72 -0.27 0.721 -0.25 Q 0.721 -0.23 0.6880000000000001 -0.23 L 0.40900000000000003 -0.23 Z"/></g><g transform="translate(16.168952408612064,12.387644714285713)"><path fill="rgb(0,0,0)" stroke="none" paint-order="stroke fill markers" d=" M 0.32421875 1.759765625 L 0.32421875 -0.0390625 L 0.6611328125 -0.0390625 L 0.6611328125 0.0341796875 L 0.39697265625 0.0341796875 L 0.39697265625 1.759765625 L 0.32421875 1.759765625 Z"/></g><g transform="translate(16.168952408612064,14.187644714285712)"><path fill="rgb(0,0,0)" stroke="none" paint-order="stroke fill markers" d=" M 0.32421875 1.7587890625 L 0.32421875 -0.0400390625 L 0.39697265625 -0.0400390625 L 0.39697265625 1.68603515625 L 0.6611328125 1.68603515625 L 0.6611328125 1.7587890625 L 0.32421875 1.7587890625 Z"/></g><g transform="translate(16.98338178060635,13.250915214285714)"><path fill="rgb(0,0,0)" stroke="none" paint-order="stroke fill markers" d=" M 0.46 -0.32 Q 0.46 -0.17400000000000002 0.423 -0.094 Q 0.364 0.018000000000000002 0.249 0.022 Q 0.158 0.022 0.10300000000000001 -0.05 Q 0.092 -0.063 0.084 -0.079 Q 0.039 -0.162 0.039 -0.32 Q 0.039 -0.467 0.076 -0.547 Q 0.126 -0.659 0.23800000000000002 -0.666 L 0.25 -0.666 Q 0.339 -0.666 0.395 -0.595 L 0.395 -0.594 Q 0.40900000000000003 -0.5760000000000001 0.42 -0.554 Q 0.46 -0.46900000000000003 0.46 -0.32 M 0.249 0 L 0.249 0 Q 0.312 0 0.34600000000000003 -0.061 Q 0.36 -0.088 0.366 -0.125 Q 0.377 -0.189 0.377 -0.332 Q 0.377 -0.47100000000000003 0.367 -0.527 Q 0.34900000000000003 -0.622 0.275 -0.641 Q 0.262 -0.644 0.249 -0.644 Q 0.179 -0.644 0.147 -0.5740000000000001 Q 0.136 -0.55 0.13 -0.516 Q 0.122 -0.462 0.122 -0.332 Q 0.122 -0.181 0.133 -0.121 Q 0.151 -0.025 0.221 -0.004 Q 0.23500000000000001 0 0.249 0 Z"/></g><g transform="translate(16.98338178060635,14.325915214285713)"><path fill="rgb(0,0,0)" stroke="none" paint-order="stroke fill markers" d=" M 0.294 -0.64 L 0.294 -0.079 Q 0.294 -0.049 0.306 -0.041 Q 0.323 -0.031 0.387 -0.031 L 0.419 -0.031 L 0.419 0 Q 0.384 -0.003 0.257 -0.003 Q 0.13 -0.003 0.095 0 L 0.095 -0.031 L 0.127 -0.031 Q 0.20400000000000001 -0.031 0.215 -0.049 L 0.216 -0.05 Q 0.22 -0.058 0.22 -0.079 L 0.22 -0.597 Q 0.168 -0.5710000000000001 0.089 -0.5710000000000001 L 0.089 -0.602 Q 0.209 -0.602 0.271 -0.666 Q 0.29 -0.666 0.293 -0.659 L 0.293 -0.659 L 0.293 -0.658 Q 0.294 -0.655 0.294 -0.64 Z"/></g><rect fill="rgb(0,0,0)" stroke="none" x="16.892881780606352" y="14.732423714285712" width="0.681" height="0.039999"/><g transform="translate(16.892881780606352,15.688374214285712)"><path fill="rgb(0,0,0)" stroke="none" paint-order="stroke fill markers" d=" M 0.374 -0.605 L 0.23900000000000002 -0.065 Q 0.234 -0.047 0.234 -0.042 Q 0.234 -0.034 0.243 -0.032 L 0.243 -0.032 L 0.243 -0.032 L 0.247 -0.032 Q 0.253 -0.031 0.269 -0.031 L 0.363 -0.031 Q 0.509 -0.031 0.5750000000000001 -0.147 Q 0.592 -0.177 0.614 -0.23700000000000002 Q 0.622 -0.256 0.627 -0.257 L 0.628 -0.258 L 0.631 -0.258 Q 0.642 -0.258 0.643 -0.247 Q 0.643 -0.244 0.639 -0.233 L 0.56 -0.017 Q 0.555 -0.002 0.547 -0.001 L 0.547 -0.001 L 0.546 -0.001 Q 0.542 0 0.529 0 L 0.066 0 Q 0.041 0 0.039 -0.011 Q 0.039 -0.029 0.054 -0.031 L 0.066 -0.031 Q 0.131 -0.031 0.14400000000000002 -0.045 Q 0.15 -0.052000000000000005 0.156 -0.073 Q 0.156 -0.074 0.157 -0.078 L 0.291 -0.615 Q 0.295 -0.631 0.295 -0.634 Q 0.295 -0.646 0.279 -0.649 L 0.278 -0.649 L 0.277 -0.649 Q 0.274 -0.649 0.268 -0.65 Q 0.251 -0.652 0.23 -0.652 Q 0.20400000000000001 -0.652 0.202 -0.663 Q 0.202 -0.683 0.221 -0.683 L 0.353 -0.68 L 0.354 -0.68 L 0.501 -0.683 L 0.502 -0.683 Q 0.518 -0.683 0.518 -0.671 Q 0.518 -0.655 0.505 -0.653 Q 0.499 -0.652 0.48 -0.652 Q 0.401 -0.652 0.386 -0.635 Q 0.38 -0.628 0.374 -0.605 Z"/></g><g transform="translate(17.630811152600636,12.387644714285713)"><path fill="rgb(0,0,0)" stroke="none" paint-order="stroke fill markers" d=" M 0.26904296875 1.759765625 L 0.26904296875 0.0341796875 L 0.0048828125 0.0341796875 L 0.0048828125 -0.0390625 L 0.341796875 -0.0390625 L 0.341796875 1.759765625 L 0.26904296875 1.759765625 Z"/></g><g transform="translate(17.630811152600636,14.187644714285712)"><path fill="rgb(0,0,0)" stroke="none" paint-order="stroke fill markers" d=" M 0.0048828125 1.7587890625 L 0.0048828125 1.68603515625 L 0.26904296875 1.68603515625 L 0.26904296875 -0.0400390625 L 0.341796875 -0.0400390625 L 0.341796875 1.7587890625 L 0.0048828125 1.7587890625 Z"/></g><g transform="translate(18.297811152600637,14.397644714285713)"><path fill="rgb(0,0,0)" stroke="none" paint-order="stroke fill markers" d=" M 0.35000000000000003 -0.056 L 0.35000000000000003 -0.056 Q 0.298 0.011 0.231 0.011 Q 0.15 0.011 0.121 -0.048 Q 0.108 -0.074 0.108 -0.109 Q 0.108 -0.163 0.161 -0.305 Q 0.163 -0.312 0.166 -0.319 Q 0.183 -0.362 0.183 -0.387 Q 0.183 -0.42 0.158 -0.42 Q 0.10200000000000001 -0.42 0.067 -0.325 Q 0.066 -0.325 0.066 -0.324 L 0.066 -0.323 Q 0.061 -0.31 0.057 -0.296 Q 0.046 -0.279 0.041 -0.278 Q 0.029 -0.278 0.029 -0.28800000000000003 Q 0.029 -0.306 0.05 -0.35100000000000003 Q 0.094 -0.442 0.161 -0.442 Q 0.214 -0.442 0.23500000000000001 -0.397 Q 0.243 -0.38 0.243 -0.36 Q 0.243 -0.34 0.226 -0.297 Q 0.17200000000000001 -0.154 0.17200000000000001 -0.093 Q 0.17200000000000001 -0.011 0.234 -0.011 Q 0.297 -0.011 0.34 -0.08 Q 0.34600000000000003 -0.089 0.34800000000000003 -0.095 Q 0.37 -0.194 0.423 -0.396 Q 0.431 -0.431 0.462 -0.431 Q 0.487 -0.426 0.491 -0.404 Q 0.491 -0.406 0.47600000000000003 -0.337 Q 0.462 -0.28600000000000003 0.459 -0.269 L 0.431 -0.161 Q 0.41100000000000003 -0.074 0.41100000000000003 -0.057 Q 0.41100000000000003 -0.011 0.442 -0.011 Q 0.484 -0.011 0.511 -0.111 Q 0.514 -0.121 0.517 -0.135 Q 0.525 -0.152 0.531 -0.153 Q 0.543 -0.153 0.543 -0.14300000000000002 Q 0.543 -0.128 0.525 -0.073 Q 0.519 -0.056 0.513 -0.044 Q 0.486 0.011 0.439 0.011 Q 0.382 0.011 0.358 -0.037 Q 0.353 -0.046 0.35000000000000003 -0.056 Z"/></g><g transform="translate(18.869811152600636,14.397644714285713)"><path fill="rgb(0,0,0)" stroke="none" paint-order="stroke fill markers" d=" M 0.331 0.24 L 0.331 0.24 Q 0.331 0.25 0.321 0.25 Q 0.309 0.25 0.268 0.209 Q 0.20600000000000002 0.147 0.165 0.062 Q 0.099 -0.074 0.099 -0.25 Q 0.099 -0.419 0.162 -0.555 Q 0.214 -0.666 0.294 -0.733 Q 0.315 -0.75 0.321 -0.75 Q 0.331 -0.75 0.331 -0.74 Q 0.331 -0.735 0.318 -0.723 Q 0.157 -0.559 0.157 -0.25 Q 0.157 0.058 0.314 0.218 Q 0.331 0.23500000000000001 0.331 0.24 Z"/></g><g transform="translate(19.258811152600636,14.397644714285713)"><path fill="rgb(0,0,0)" stroke="none" paint-order="stroke fill markers" d=" M 0.20600000000000002 -0.4 L 0.132 -0.105 Q 0.126 -0.08 0.126 -0.057 Q 0.126 -0.011 0.157 -0.011 Q 0.223 -0.011 0.273 -0.108 L 0.28700000000000003 -0.139 Q 0.293 -0.152 0.302 -0.153 Q 0.314 -0.153 0.314 -0.14300000000000002 Q 0.314 -0.13 0.28800000000000003 -0.08600000000000001 Q 0.23 0.011 0.155 0.011 Q 0.097 0.011 0.073 -0.037 Q 0.063 -0.057 0.063 -0.081 Q 0.063 -0.1 0.124 -0.34 L 0.139 -0.4 L 0.051000000000000004 -0.4 Q 0.026000000000000002 -0.4 0.024 -0.40800000000000003 L 0.023 -0.40800000000000003 L 0.023 -0.41200000000000003 Q 0.023 -0.429 0.039 -0.431 L 0.053 -0.431 L 0.147 -0.431 L 0.186 -0.59 Q 0.195 -0.625 0.226 -0.626 Q 0.252 -0.626 0.255 -0.599 Q 0.255 -0.593 0.214 -0.431 L 0.302 -0.431 Q 0.328 -0.431 0.33 -0.42 Q 0.33 -0.402 0.314 -0.4 L 0.313 -0.4 L 0.3 -0.4 L 0.20600000000000002 -0.4 Z"/></g><g transform="translate(19.619811152600636,14.397644714285713)"><path fill="rgb(0,0,0)" stroke="none" paint-order="stroke fill markers" d=" M 0.289 -0.25 L 0.289 -0.25 Q 0.289 -0.081 0.226 0.055 Q 0.17400000000000002 0.166 0.094 0.233 Q 0.073 0.25 0.067 0.25 Q 0.057 0.25 0.057 0.24 Q 0.057 0.23500000000000001 0.07 0.223 Q 0.231 0.059000000000000004 0.231 -0.25 Q 0.231 -0.555 0.081 -0.712 L 0.076 -0.717 Q 0.057 -0.735 0.057 -0.74 Q 0.057 -0.75 0.067 -0.75 Q 0.079 -0.75 0.12 -0.709 Q 0.182 -0.647 0.223 -0.562 Q 0.289 -0.426 0.289 -0.25 Z"/></g></g></g></g></svg>